<mxfile host="app.diagrams.net" modified="2024-07-01T18:43:27.740Z" agent="Mozilla/5.0 (Windows NT 10.0; Win64; x64) AppleWebKit/537.36 (KHTML, like Gecko) Chrome/126.0.0.0 Safari/537.36" version="24.6.4" etag="f2paPepp-u6zduxZLZPO" type="github">
  <diagram name="Page-1" id="L44xJOwaPrE3bIe5Eiis">
    <mxGraphModel>
      <root>
        <mxCell id="0" />
        <mxCell id="1" parent="0" />
      </root>
    </mxGraphModel>
  </diagram>
</mxfile>
